{"title":"Rampart.2011.BDRip.XVID.AC3.HQ.Hive-CM8","uid":7238363,"size":1702447793,"categoryP":"video","categoryS":"movies","magnet":"?xt=urn:btih:6b096f6aa9206a18cd69193aac69b1d69a1556e0&amp;dn=Rampart.2011.BDRip.XVID.AC3.HQ.Hive-CM8&amp;tr=udp%3A%2F%2Ftracker.openbittorrent.com%3A80&amp;tr=udp%3A%2F%2Fopen.demonii.com%3A1337&amp;tr=udp%3A%2F%2Ftracker.coppersurfer.tk%3A6969&amp;tr=udp%3A%2F%2Fexodus.desync.com%3A6969","seeders":1,"leechers":0,"uploader":"VITTORY","files":4,"time":1336062969,"description":"Rampart.2011.BDRip.XVID.AC3.HQ.Hive-CM8\n\n\nSet in 1999 Los Angeles, veteran police officer Dave Brown\n the last of the renegade cops, works to take care of his\n family, and struggles for his own survival\n\n &lt;a href=&quot;\nhttp://www.imdb.com/title/tt1640548/&quot; rel=&quot;nofollow&quot; target=&quot;_NEW&quot;&gt;\nhttp://www.imdb.com/title/tt1640548/&lt;/a&gt;\n\n\n\nGeneral\n Complete name: Rampart.2011.BDRip.XVID.AC3.HQ.Hive-CM8.avi\n Format: AVI\n Format/Info: Audio Video Interleave\n File size: 1.58 GiB\n Duration: 1h 47mn\n Overall bit rate: 2 093 Kbps\n Writing application: Nandub v1.0rc2\n Writing library: Nandub build 1853/release\n\n Video\n ID: 0\n Format: MPEG-4 Visual\n Format profile: Advanced Simple@L5\n Format settings, BVOP: 1\n Format settings, QPel: Yes\n Format settings, GMC: No warppoints\n Format settings, Matrix: Default (H.263)\n Muxing mode: Packed bitstream\n Codec ID: XVID\n Codec ID/Hint: XviD\n Duration: 1h 47mn\n Bit rate: 1 699 Kbps\n Width: 720 pixels\n Height: 304 pixels\n Display aspect ratio: 2.35:1\n Frame rate: 23.976 fps\n Color space: YUV\n Chroma subsampling: 4:2:0\n Bit depth: 8 bits\n Scan type: Progressive\n Compression mode: Lossy\n Bits/(Pixel*Frame): 0.324\n Stream size: 1.28 GiB (81%)\n Writing library: XviD 1.2.1 (UTC 2008-12-04)\n\n Audio\n ID: 1\n Format: AC-3\n Format/Info: Audio Coding 3\n Mode extension: CM (complete main)\n Codec ID: 2000\n Duration: 1h 47mn\n Bit rate mode: Constant\n Bit rate: 384 Kbps\n Channel(s): 6 channels\n Channel positions: Front: L C R, Side: L R, LFE\n Sampling rate: 48.0 KHz\n Bit depth: 16 bits\n Compression mode: Lossy\n Stream size: 296 MiB (18%)\n Alignment: Split accross interleaves\n Interleave, duration: 42 ms (1.00 video frame)\n Interleave, preload duration: 500 ms\n\nscreeny:\n\n &lt;a href=&quot;\nhttp://img710.imageshack.us/img710/4816/rararara.png&quot; rel=&quot;nofollow&quot; target=&quot;_NEW&quot;&gt;\nhttp://img710.imageshack.us/img710/4816/rararara.png&lt;/a&gt; &lt;a href=&quot;\nhttp://img198.imageshack.us/img198/848/rarararara.png&quot; rel=&quot;nofollow&quot; target=&quot;_NEW&quot;&gt;\nhttp://img198.imageshack.us/img198/848/rarararara.png&lt;/a&gt; &lt;a href=&quot;\nhttp://img401.imageshack.us/img401/3310/18920722.png&quot; rel=&quot;nofollow&quot; target=&quot;_NEW&quot;&gt;\nhttp://img401.imageshack.us/img401/3310/18920722.png&lt;/a&gt; &lt;a href=&quot;\nhttp://img337.imageshack.us/img337/9370/rarau.png&quot; rel=&quot;nofollow&quot; target=&quot;_NEW&quot;&gt;\nhttp://img337.imageshack.us/img337/9370/rarau.png&lt;/a&gt;","torrent":{"xt":"urn:btih:6b096f6aa9206a18cd69193aac69b1d69a1556e0","amp;dn":"Rampart.2011.BDRip.XVID.AC3.HQ.Hive-CM8","amp;tr":["udp%3A%2F%2Ftracker.openbittorrent.com%3A80","udp%3A%2F%2Fopen.demonii.com%3A1337","udp%3A%2F%2Ftracker.coppersurfer.tk%3A6969","udp%3A%2F%2Fexodus.desync.com%3A6969"],"infoHash":"6b096f6aa9206a18cd69193aac69b1d69a1556e0","infoHashBuffer":{"type":"Buffer","data":[107,9,111,106,169,32,106,24,205,105,25,58,172,105,177,214,154,21,86,224]},"announce":[],"urlList":[]}}